<svg width="332" height="77" viewBox="0 0 332 77" fill="none" xmlns="http://www.w3.org/2000/svg">
<path d="M47.56 43.488C47.9867 44 48.2 44.5973 48.2 45.28C48.2 46.1333 47.8587 46.9013 47.176 47.584C46.5787 48.1813 45.896 48.48 45.128 48.48C41.544 47.3707 37.4907 46.56 32.968 46.048C31.7733 53.6427 29.8107 62.816 27.08 73.568C26.568 75.2747 25.3307 76.128 23.368 76.128C22.4293 76.128 21.704 75.8293 21.192 75.232C20.7653 74.5493 20.3387 73.6107 19.912 72.416C22.5573 62.0053 24.52 53.0453 25.8 45.536C24.4347 45.4507 22.2587 45.408 19.272 45.408C17.0533 45.408 13.128 45.4933 7.496 45.664C7.15467 44.64 6.984 43.8293 6.984 43.232C6.984 42.3787 7.15467 41.6533 7.496 41.056C7.83733 40.3733 8.30667 39.9893 8.904 39.904C11.208 39.4773 15.1333 39.264 20.68 39.264C23.3253 39.264 25.3307 39.3067 26.696 39.392C27.976 30.3467 28.488 22.112 28.232 14.688C26.952 14.6027 24.4773 14.6453 20.808 14.816C17.5653 14.9867 15.0053 15.072 13.128 15.072C9.288 15.072 6.216 14.7733 3.912 14.176C1.69333 13.4933 0.584 12.3413 0.584 10.72C0.584 9.696 0.925333 8.672 1.608 7.64799C10.4827 8.58666 19.1013 9.056 27.464 9.056C31.2187 9.056 33.864 8.97066 35.4 8.8C35.4 20.832 34.888 31.1573 33.864 39.776C41.6293 40.3733 46.1947 41.6107 47.56 43.488Z" fill="#FBE7C6"/>
<path d="M66.774 76.256C64.982 76.256 63.7447 74.208 63.062 70.112C62.4647 65.9307 61.9527 58.592 61.526 48.096L61.142 38.752C60.9713 35.5093 60.374 30.5173 59.35 23.776C59.2647 22.9227 58.9233 20.32 58.326 15.968C57.7287 11.616 57.43 7.776 57.43 4.448C57.43 3.936 57.686 3.296 58.198 2.528C58.71 1.67466 59.35 1.24799 60.118 1.24799C61.2273 1.24799 61.9527 1.75999 62.294 2.784C62.7207 3.808 62.9767 4.832 63.062 5.856C63.2327 6.79467 63.318 7.392 63.318 7.64799C63.83 9.09866 64.214 11.104 64.47 13.664C64.726 16.1387 64.9393 18.784 65.11 21.6C65.4513 27.1467 65.7927 31.1147 66.134 33.504L70.102 27.872C75.6487 19.68 80.6407 13.1093 85.078 8.16C89.6007 3.21067 93.9953 0.821332 98.262 0.991997C98.6033 1.33333 98.774 1.76 98.774 2.272C98.774 3.12533 98.3473 4.10666 97.494 5.216C96.6407 6.32533 95.3607 7.776 93.654 9.56799L90.966 12.384C90.0273 13.4933 87.1687 16.6507 82.39 21.856C79.062 25.3547 76.3313 28.3413 74.198 30.816C72.0647 33.2907 70.4433 35.552 69.334 37.6C73.0887 42.8053 77.526 47.4133 82.646 51.424C87.8513 55.4347 94.6353 60.1707 102.998 65.632L106.838 68.064C108.374 68.6613 109.569 69.472 110.422 70.496C111.361 71.4347 111.83 72.416 111.83 73.44C111.83 73.952 111.702 74.464 111.446 74.976C110.849 76 110.123 76.512 109.27 76.512C108.331 76.512 106.667 75.9147 104.278 74.72L97.366 69.856C89.8567 64.9067 83.4567 60.2987 78.166 56.032C72.8753 51.7653 69.206 47.712 67.158 43.872L67.926 53.472C68.694 62.2613 69.078 68.1493 69.078 71.136C69.078 73.2693 68.9073 74.6773 68.566 75.36C68.2247 75.9573 67.6273 76.256 66.774 76.256ZM128.259 76C124.76 69.1733 121.987 61.152 119.939 51.936C117.976 42.72 116.995 34.7413 116.995 28C116.995 25.3547 117.592 23.648 118.787 22.88C119.47 22.4533 119.982 22.24 120.323 22.24C120.92 22.24 121.347 22.7093 121.603 23.648C121.944 24.5867 122.286 26.2933 122.627 28.768L123.267 33.376C124.206 28.768 125.998 25.1413 128.643 22.496C131.374 19.7653 134.702 18.4 138.627 18.4C142.979 18.4 146.222 19.2533 148.355 20.96C150.488 22.5813 151.555 25.312 151.555 29.152C147.288 27.104 143.406 26.08 139.907 26.08C136.579 26.08 133.72 26.976 131.331 28.768C128.942 30.56 127.278 33.2053 126.339 36.704C125.571 39.0933 125.187 41.3547 125.187 43.488C125.187 45.792 125.486 47.968 126.083 50.016C126.766 51.9787 127.79 54.4107 129.155 57.312C130.435 60.2987 131.416 62.8587 132.099 64.992C132.867 67.1253 133.294 69.4293 133.379 71.904C133.379 73.3547 132.867 74.4213 131.843 75.104C130.819 75.7013 129.624 76 128.259 76ZM189.516 76C180.641 76 172.919 74.464 166.348 71.392C159.863 68.2347 156.62 62.7307 156.62 54.88C156.62 52.064 157.473 49.3333 159.18 46.688C160.887 44.0427 163.404 41.9093 166.732 40.288C170.06 38.5813 174.113 37.728 178.892 37.728C182.561 37.728 185.676 37.8987 188.236 38.24C190.796 38.5813 193.74 39.52 197.068 41.056C200.396 42.592 203.852 45.024 207.436 48.352C206.071 42.464 204.023 37.3013 201.292 32.864C198.561 28.4267 195.489 25.0133 192.076 22.624C188.748 20.1493 185.463 18.912 182.22 18.912C180.684 18.912 179.233 19.2107 177.868 19.808C176.588 20.32 175.009 21.088 173.132 22.112C170.999 23.4773 169.42 24.16 168.396 24.16C167.969 24.16 167.585 24.032 167.244 23.776C166.988 23.4347 166.86 23.0507 166.86 22.624C166.86 19.2107 168.353 16.5653 171.34 14.688C174.412 12.8107 178.124 11.9573 182.476 12.128C188.449 12.4693 193.911 15.0293 198.86 19.808C203.809 24.5013 207.692 30.3467 210.508 37.344C213.409 44.3413 214.86 51.2107 214.86 57.952C214.86 59.0613 214.775 60.64 214.604 62.688L210.508 62.432C207.265 55.8613 203.084 51.2107 197.964 48.48C192.929 45.664 187.852 44.256 182.732 44.256C176.161 44.256 171.468 45.2373 168.652 47.2C165.836 49.1627 164.428 52.0213 164.428 55.776C164.428 59.7013 166.391 62.8587 170.316 65.248C174.241 67.6373 179.276 68.832 185.42 68.832C188.833 68.832 191.564 68.6613 193.612 68.32C195.66 67.8933 197.793 67.3387 200.012 66.656C201.804 66.0587 203.383 65.632 204.748 65.376C206.113 65.12 207.863 64.992 209.996 64.992C212.385 64.992 213.879 65.1627 214.476 65.504C215.159 65.8453 215.5 66.6133 215.5 67.808C215.5 68.6613 213.751 69.728 210.252 71.008C206.753 72.288 202.828 73.44 198.476 74.464C194.124 75.488 191.137 76 189.516 76ZM247.761 76.128C245.286 76.128 242.044 72.4587 238.033 65.12C234.108 57.696 229.542 48.3093 224.337 36.96L220.625 29.024C220.625 28.1707 221.137 27.36 222.161 26.592C223.185 25.7387 224.721 25.3547 226.769 25.44C227.281 26.3787 228.902 29.8347 231.633 35.808C234.876 42.8053 237.606 48.5653 239.825 53.088C242.129 57.5253 244.902 62.304 248.145 67.424C249.596 62.1333 251.217 57.184 253.009 52.576C254.886 47.8827 257.66 41.2693 261.329 32.736L263.249 28.256C263.761 27.232 264.742 26.72 266.193 26.72C267.217 26.72 268.113 26.976 268.881 27.488C269.649 28 270.033 28.7253 270.033 29.664C270.033 30.5173 269.606 31.4133 268.753 32.352C268.156 32.9493 267.302 34.6987 266.193 37.6C265.084 40.416 263.932 43.5733 262.737 47.072C259.494 56.288 256.678 63.4987 254.289 68.704C251.9 73.824 249.724 76.2987 247.761 76.128ZM309.203 76C303.742 76 298.707 74.9333 294.099 72.8C289.491 70.6667 285.822 67.6373 283.091 63.712C280.36 59.7867 278.995 55.264 278.995 50.144C278.995 44.4267 280.062 39.0933 282.195 34.144C284.328 29.1093 287.443 25.0987 291.539 22.112C295.72 19.04 300.584 17.504 306.131 17.504C311.934 17.504 316.328 19.3813 319.315 23.136C322.302 26.8053 323.71 31.456 323.539 37.088C323.539 42.1227 321.534 45.9627 317.523 48.608C313.598 51.2533 308.563 52.576 302.419 52.576C301.48 52.576 300.072 52.4907 298.195 52.32C295.123 51.9787 292.947 51.5093 291.667 50.912C290.387 50.3147 289.747 49.12 289.747 47.328C289.747 46.7307 289.918 46.304 290.259 46.048C290.6 45.7067 291.283 45.536 292.307 45.536C293.416 45.536 295.379 45.792 298.195 46.304C300.926 46.816 303.358 47.072 305.491 47.072C313.342 47.072 317.267 43.6587 317.267 36.832C317.267 32.736 316.499 29.4933 314.963 27.104C313.512 24.7147 310.91 23.52 307.155 23.52C303.059 23.52 299.39 24.6293 296.147 26.848C292.904 28.9813 290.387 31.7973 288.595 35.296C286.888 38.7947 286.035 42.5067 286.035 46.432C286.035 53.1733 287.912 58.72 291.667 63.072C295.422 67.3387 301.224 69.472 309.075 69.472C310.014 69.472 311.592 69.3867 313.811 69.216C314.75 69.1307 315.902 68.8747 317.267 68.448C318.632 68.0213 319.614 67.7227 320.211 67.552C323.88 66.272 326.568 65.632 328.275 65.632C329.555 65.632 330.536 65.9733 331.219 66.656C329.086 69.8987 325.886 72.288 321.619 73.824C317.438 75.2747 313.299 76 309.203 76Z" fill="#A0E7E5"/>
</svg>
