<svg width="667" height="140" viewBox="0 0 667 140" fill="none" xmlns="http://www.w3.org/2000/svg">
<line y1="69.5" x2="284" y2="69.5" stroke="#FBE7C6"/>
<line x1="383" y1="69.5" x2="667" y2="69.5" stroke="#A0E7E5"/>
<path d="M322.448 93.096C317.136 93.096 312.368 92.008 308.144 89.832C303.984 87.656 300.72 84.584 298.352 80.616C295.984 76.648 294.8 72.072 294.8 66.888C294.8 63.368 295.504 60.136 296.912 57.192C298.32 54.248 300.368 51.912 303.056 50.184C305.744 48.392 308.912 47.496 312.56 47.496C319.472 47.496 325.616 48.68 330.992 51.048C336.432 53.352 340.656 56.68 343.664 61.032C346.736 65.384 348.272 70.408 348.272 76.104C348.272 79.88 346.864 83.048 344.048 85.608C341.296 88.168 337.904 90.056 333.872 91.272C329.904 92.488 326.096 93.096 322.448 93.096ZM320.624 88.104C327.024 88.104 332.4 87.144 336.752 85.224C341.168 83.304 343.376 80.104 343.376 75.624C343.376 67.816 340.368 61.96 334.352 58.056C328.336 54.088 320.656 52.104 311.312 52.104C306.832 52.104 303.664 53.448 301.808 56.136C300.016 58.76 299.12 62.344 299.12 66.888C299.12 70.664 300.016 74.184 301.808 77.448C303.664 80.648 306.224 83.24 309.488 85.224C312.752 87.144 316.464 88.104 320.624 88.104Z" fill="#A0E7E5"/>
<path d="M365.382 93C362.758 87.88 360.678 81.864 359.142 74.952C357.67 68.04 356.934 62.056 356.934 57C356.934 55.016 357.382 53.736 358.278 53.16C358.79 52.84 359.174 52.68 359.43 52.68C359.878 52.68 360.198 53.032 360.39 53.736C360.646 54.44 360.902 55.72 361.158 57.576L361.638 61.032C362.342 57.576 363.686 54.856 365.67 52.872C367.718 50.824 370.214 49.8 373.158 49.8C376.422 49.8 378.854 50.44 380.454 51.72C382.054 52.936 382.854 54.984 382.854 57.864C379.654 56.328 376.742 55.56 374.118 55.56C371.622 55.56 369.478 56.232 367.686 57.576C365.894 58.92 364.646 60.904 363.942 63.528C363.366 65.32 363.078 67.016 363.078 68.616C363.078 70.344 363.302 71.976 363.75 73.512C364.262 74.984 365.03 76.808 366.054 78.984C367.014 81.224 367.75 83.144 368.262 84.744C368.838 86.344 369.158 88.072 369.222 89.928C369.222 91.016 368.838 91.816 368.07 92.328C367.302 92.776 366.406 93 365.382 93Z" fill="#FBE7C6"/>
</svg>
