<svg width="256" height="256" viewBox="0 0 256 256" fill="none" xmlns="http://www.w3.org/2000/svg">
<path d="M128 224C181.019 224 224 181.019 224 128C224 74.9807 181.019 32 128 32C74.9807 32 32 74.9807 32 128C32 181.019 74.9807 224 128 224Z" stroke="#A3E1E2" stroke-width="16" stroke-linecap="round" stroke-linejoin="round"/>
<path d="M128 192C134.627 192 140 186.627 140 180C140 173.373 134.627 168 128 168C121.373 168 116 173.373 116 180C116 186.627 121.373 192 128 192Z" fill="#A3E1E2"/>
<path d="M128 144V136C133.538 136 138.951 134.358 143.556 131.281C148.161 128.204 151.749 123.831 153.869 118.715C155.988 113.599 156.542 107.969 155.462 102.537C154.382 97.106 151.715 92.1169 147.799 88.201C143.883 84.2852 138.894 81.6184 133.463 80.538C128.031 79.4576 122.401 80.0121 117.285 82.1314C112.169 84.2506 107.796 87.8395 104.719 92.444C101.642 97.0486 100 102.462 100 108" stroke="#A3E1E2" stroke-width="16" stroke-linecap="round" stroke-linejoin="round"/>
</svg>
